<svg width="33" height="33" viewBox="0 0 33 33" fill="none" xmlns="http://www.w3.org/2000/svg">
<g clip-path="url(#clip0)">
<path d="M33 16.5C33 7.38749 25.6125 -3.22917e-07 16.5 -7.21238e-07C7.38749 -1.11956e-06 -3.22917e-07 7.38749 -7.21238e-07 16.5C-1.11956e-06 25.6125 7.38749 33 16.5 33C25.6125 33 33 25.6125 33 16.5ZM2.75002 16.5C2.75002 8.90626 8.90626 2.75002 16.5 2.75002C24.0937 2.75002 30.25 8.90626 30.25 16.5C30.25 24.0937 24.0937 30.25 16.5 30.25C8.90626 30.25 2.75002 24.0937 2.75002 16.5Z" fill="white"/>
<path d="M24.3473 14.7222C24.8842 14.1853 24.8842 13.3146 24.3473 12.7777C23.8103 12.2407 22.9397 12.2407 22.4027 12.7777L16.5 18.6804L10.5972 12.7777C10.0603 12.2407 9.18965 12.2407 8.65269 12.7777C8.11574 13.3146 8.11574 14.1853 8.65269 14.7222L15.5277 21.5973C16.0647 22.1342 16.9353 22.1342 17.4723 21.5973L24.3473 14.7222Z" fill="white"/>
</g>
<defs>
<clipPath id="clip0">
<rect width="33" height="33" fill="white" transform="translate(33) rotate(90)"/>
</clipPath>
</defs>
</svg>
