<svg width="33" height="33" viewBox="0 0 33 33" fill="none" xmlns="http://www.w3.org/2000/svg">
<g clip-path="url(#clip0)">
<path d="M-7.21238e-07 16.5C-3.22917e-07 25.6125 7.38749 33 16.5 33C25.6125 33 33 25.6125 33 16.5C33 7.38749 25.6125 -1.11956e-06 16.5 -7.21238e-07C7.38749 -3.22917e-07 -1.11956e-06 7.38749 -7.21238e-07 16.5ZM30.25 16.5C30.25 24.0937 24.0937 30.25 16.5 30.25C8.90626 30.25 2.75002 24.0937 2.75002 16.5C2.75002 8.90626 8.90626 2.75002 16.5 2.75002C24.0937 2.75002 30.25 8.90626 30.25 16.5Z" fill="white"/>
<path d="M8.65272 18.2777C8.11576 18.8147 8.11576 19.6853 8.65272 20.2223C9.18968 20.7592 10.0603 20.7592 10.5973 20.2223L16.5 14.3195L22.4028 20.2223C22.9397 20.7592 23.8103 20.7592 24.3473 20.2223C24.8843 19.6853 24.8843 18.8147 24.3473 18.2777L17.4723 11.4027C16.9353 10.8658 16.0647 10.8658 15.5277 11.4027L8.65272 18.2777Z" fill="white"/>
</g>
<defs>
<clipPath id="clip0">
<rect width="33" height="33" fill="white" transform="translate(0 33) rotate(-90)"/>
</clipPath>
</defs>
</svg>
