<svg width="194" height="90" viewBox="0 0 194 90" fill="none" xmlns="http://www.w3.org/2000/svg">
<path d="M190.959 3V1.5H189.459H15C7.54416 1.5 1.5 7.54416 1.5 15V87V88.5H3H177.459C184.915 88.5 190.959 82.4558 190.959 75V3Z" stroke="white" stroke-width="3" stroke-miterlimit="4.62023"/>
<path d="M42.5043 20.335C42.3988 20.2865 39.8248 19.1045 24.5858 12.1045C24.2827 11.9652 23.9393 11.9652 23.6361 12.1045L5.71764 20.335C4.75616 20.7758 4.76542 22.2225 5.71764 22.6586C9.19861 24.2573 14.8893 26.8716 23.6361 30.8892C23.9375 31.0277 24.2809 31.0293 24.5858 30.8892C25.4164 30.5076 36.7339 25.3091 37.2512 25.0716V38.5556C37.2512 39.2376 37.7459 39.8243 38.3887 39.8559C39.0747 39.8898 39.6404 39.3108 39.6404 38.5911V24.6123C39.6404 24.4134 39.5013 24.2454 39.3151 24.22C37.073 23.9137 26.4989 22.467 23.9579 22.1197C23.223 22.0223 22.765 21.2334 22.9582 20.5313C23.1098 19.9383 23.6409 19.5606 24.1789 19.5998C24.2325 19.6032 41.256 21.9318 41.2438 21.9301C41.5619 21.9735 41.8233 22.1894 41.9489 22.4821C42.0367 22.6868 42.2603 22.7806 42.4523 22.6851C42.7737 22.5254 43.0525 22.3152 43.1793 21.8395C43.3425 21.2231 43.0476 20.584 42.5043 20.335V20.335Z" fill="#FFCD00"/>
<path d="M22.6033 32.3303L12.6046 27.7377C12.3581 27.6244 12.0829 27.816 12.0829 28.1008V32.6437C12.0829 36.9039 17.33 40.2412 24.0286 40.2412C30.7271 40.2412 35.9742 36.9039 35.9742 32.6437V28.1008C35.9742 27.816 35.699 27.6245 35.4525 27.7377L25.4531 32.3303C24.5452 32.7487 23.5121 32.7484 22.6033 32.3303Z" fill="#FFCD00"/>
<path d="M51.4797 40C49.9597 40 48.653 39.4533 47.5597 38.36C46.4664 37.2667 45.9197 35.96 45.9197 34.44V16.76C45.9197 15.24 46.4664 13.9333 47.5597 12.84C48.653 11.7467 49.9597 11.2 51.4797 11.2H74.6397V16.52H52.5997C51.853 16.52 51.4264 16.5733 51.3197 16.68C51.2397 16.76 51.1997 17.1733 51.1997 17.92V33.28C51.1997 34.0267 51.2397 34.4533 51.3197 34.56C51.4264 34.64 51.853 34.68 52.5997 34.68H74.6397V40H51.4797ZM78.7303 40V9.2H83.9703V16.8H96.7703C98.2636 16.8 99.557 17.3467 100.65 18.44C101.744 19.5067 102.29 20.8 102.29 22.32V40H97.0503V23.44C97.0503 22.6933 96.997 22.28 96.8903 22.2C96.8103 22.0933 96.397 22.04 95.6503 22.04H85.3703C84.6236 22.04 84.197 22.0933 84.0903 22.2C84.0103 22.28 83.9703 22.6933 83.9703 23.44V40H78.7303ZM110.81 40C109.29 40 107.983 39.4667 106.89 38.4C105.823 37.3067 105.29 36 105.29 34.48V22.32C105.29 20.8 105.823 19.5067 106.89 18.44C107.983 17.3467 109.29 16.8 110.81 16.8H123.33C124.85 16.8 126.143 17.3467 127.21 18.44C128.303 19.5067 128.85 20.8 128.85 22.32V31.04H110.53V33.36C110.53 34.1067 110.57 34.5333 110.65 34.64C110.757 34.72 111.183 34.76 111.93 34.76H128.85V40H110.81ZM110.53 26.32H123.61V23.44C123.61 22.6933 123.557 22.28 123.45 22.2C123.37 22.0933 122.957 22.04 122.21 22.04H111.93C111.183 22.04 110.757 22.0933 110.65 22.2C110.57 22.28 110.53 22.6933 110.53 23.44V26.32ZM137.568 40C136.048 40 134.741 39.4667 133.648 38.4C132.581 37.3067 132.048 36 132.048 34.48V22.32C132.048 20.8 132.581 19.5067 133.648 18.44C134.741 17.3467 136.048 16.8 137.568 16.8H155.568V22.04H138.688C137.941 22.04 137.514 22.0933 137.408 22.2C137.328 22.28 137.288 22.6933 137.288 23.44V33.36C137.288 34.1067 137.328 34.5333 137.408 34.64C137.514 34.72 137.941 34.76 138.688 34.76H155.608V40H137.568ZM158.926 40V9.2H164.166V25.76H168.286L176.566 16.8H182.166V18.24L172.926 28.4L182.126 38.56V40H176.566L168.286 31.04H164.166V40H158.926Z" fill="white"/>
<path d="M14.68 76C13.16 76 11.8533 75.4533 10.76 74.36C9.66667 73.2667 9.12 71.96 9.12 70.44V68.24H14.4V69.28C14.4 70.0267 14.44 70.4533 14.52 70.56C14.6267 70.64 15.0533 70.68 15.8 70.68H31.2C31.9467 70.68 32.36 70.64 32.44 70.56C32.5467 70.4533 32.6 70.0267 32.6 69.28V65.64C32.6 64.8933 32.5467 64.48 32.44 64.4C32.36 64.2933 31.9467 64.24 31.2 64.24H14.68C13.16 64.24 11.8533 63.6933 10.76 62.6C9.66667 61.5067 9.12 60.2 9.12 58.68V52.76C9.12 51.24 9.66667 49.9333 10.76 48.84C11.8533 47.7467 13.16 47.2 14.68 47.2H32.36C33.88 47.2 35.1867 47.7467 36.28 48.84C37.3733 49.9333 37.92 51.24 37.92 52.76V54.96H32.6V53.92C32.6 53.1733 32.5467 52.76 32.44 52.68C32.36 52.5733 31.9467 52.52 31.2 52.52H15.8C15.0533 52.52 14.6267 52.5733 14.52 52.68C14.44 52.76 14.4 53.1733 14.4 53.92V57.56C14.4 58.3067 14.44 58.72 14.52 58.8C14.6267 58.88 15.0533 58.92 15.8 58.92H32.36C33.88 58.92 35.1867 59.48 36.28 60.6C37.3733 61.6933 37.92 63 37.92 64.52V70.44C37.92 71.96 37.3733 73.2667 36.28 74.36C35.1867 75.4533 33.88 76 32.36 76H14.68ZM47.6869 76C46.1669 76 44.8602 75.4667 43.7669 74.4C42.7002 73.3067 42.1669 72 42.1669 70.48V45.68H47.4069V52.8H56.4469V58.04H47.4069V69.36C47.4069 70.1067 47.4469 70.5333 47.5269 70.64C47.6335 70.72 48.0602 70.76 48.8069 70.76H56.4469V76H47.6869ZM65.2259 76C63.7059 76 62.3993 75.4667 61.3059 74.4C60.2393 73.3067 59.7059 72 59.7059 70.48V52.8H64.9459V69.36C64.9459 70.1067 64.9859 70.5333 65.0659 70.64C65.1726 70.72 65.5993 70.76 66.3459 70.76H76.6259C77.3726 70.76 77.7859 70.72 77.8659 70.64C77.9726 70.5333 78.0259 70.1067 78.0259 69.36V52.8H83.2659V70.48C83.2659 72 82.7193 73.3067 81.6259 74.4C80.5593 75.4667 79.2659 76 77.7459 76H65.2259ZM91.9556 76C90.4356 76 89.129 75.4667 88.0356 74.4C86.969 73.3067 86.4356 72 86.4356 70.48V58.32C86.4356 56.8 86.969 55.5067 88.0356 54.44C89.129 53.3467 90.4356 52.8 91.9556 52.8H104.796V45.2H110.036V76H91.9556ZM93.1156 70.76H103.396C104.116 70.76 104.529 70.72 104.636 70.64C104.742 70.5333 104.796 70.1067 104.796 69.36V59.44C104.796 58.6933 104.742 58.28 104.636 58.2C104.529 58.0933 104.116 58.04 103.396 58.04H93.1156C92.369 58.04 91.9423 58.0933 91.8356 58.2C91.7556 58.28 91.7156 58.6933 91.7156 59.44V69.36C91.7156 70.1067 91.7556 70.5333 91.8356 70.64C91.9423 70.72 92.369 70.76 93.1156 70.76ZM114.275 76V52.8H119.515V76H114.275ZM114.275 50.48V45.2H119.515V50.48H114.275ZM128.896 76C127.376 76 126.069 75.4667 124.976 74.4C123.909 73.3067 123.376 72 123.376 70.48V58.32C123.376 56.8 123.909 55.5067 124.976 54.44C126.069 53.3467 127.376 52.8 128.896 52.8H141.416C142.936 52.8 144.229 53.3467 145.296 54.44C146.389 55.5067 146.936 56.8 146.936 58.32V67.04H128.616V69.36C128.616 70.1067 128.656 70.5333 128.736 70.64C128.843 70.72 129.269 70.76 130.016 70.76H146.936V76H128.896ZM128.616 62.32H141.696V59.44C141.696 58.6933 141.643 58.28 141.536 58.2C141.456 58.0933 141.043 58.04 140.296 58.04H130.016C129.269 58.04 128.843 58.0933 128.736 58.2C128.656 58.28 128.616 58.6933 128.616 59.44V62.32ZM156.198 76C154.678 76 153.371 75.4667 152.278 74.4C151.211 73.3067 150.678 72 150.678 70.48V69.6H155.918V69.84C155.918 70.2667 155.958 70.5333 156.038 70.64C156.144 70.72 156.411 70.76 156.838 70.76H168.078C168.478 70.76 168.731 70.72 168.838 70.64C168.944 70.5333 168.998 70.2667 168.998 69.84V67.96C168.998 67.5333 168.944 67.28 168.838 67.2C168.731 67.0933 168.478 67.04 168.078 67.04H156.198C154.678 67.04 153.371 66.4933 152.278 65.4C151.211 64.3067 150.678 63.0133 150.678 61.52V58.32C150.678 56.8 151.211 55.5067 152.278 54.44C153.371 53.3467 154.678 52.8 156.198 52.8H168.718C170.238 52.8 171.544 53.3467 172.638 54.44C173.731 55.5067 174.278 56.8 174.278 58.32V59.2H168.998V58.96C168.998 58.5333 168.944 58.28 168.838 58.2C168.731 58.0933 168.478 58.04 168.078 58.04H156.838C156.411 58.04 156.144 58.0933 156.038 58.2C155.958 58.28 155.918 58.5333 155.918 58.96V60.84C155.918 61.2667 155.958 61.5333 156.038 61.64C156.144 61.72 156.411 61.76 156.838 61.76H168.718C170.238 61.76 171.544 62.3067 172.638 63.4C173.731 64.4933 174.278 65.7867 174.278 67.28V70.48C174.278 72 173.731 73.3067 172.638 74.4C171.544 75.4667 170.238 76 168.718 76H156.198ZM178.34 76V70.76H183.58V76H178.34Z" fill="white"/>
</svg>
